<svg width="27" height="27" viewBox="0 0 27 27" fill="none" xmlns="http://www.w3.org/2000/svg">
<path fill-rule="evenodd" clip-rule="evenodd" d="M0.802136 0.802136C1.37165 0.232621 2.29502 0.232621 2.86453 0.802136L13.5 11.4376L24.1355 0.802136C24.705 0.232621 25.6283 0.232621 26.1979 0.802136C26.7674 1.37165 26.7674 2.29502 26.1979 2.86453L15.5624 13.5L26.1979 24.1355C26.7674 24.705 26.7674 25.6283 26.1979 26.1979C25.6283 26.7674 24.705 26.7674 24.1355 26.1979L13.5 15.5624L2.86453 26.1979C2.29502 26.7674 1.37165 26.7674 0.802136 26.1979C0.232621 25.6283 0.232621 24.705 0.802136 24.1355L11.4376 13.5L0.802136 2.86453C0.232621 2.29502 0.232621 1.37165 0.802136 0.802136Z" fill="#B85526"/>
</svg>
