<svg width="30" height="31" viewBox="0 0 30 31" fill="none" xmlns="http://www.w3.org/2000/svg">
<path fill-rule="evenodd" clip-rule="evenodd" d="M20.1108 0.916672C20.4978 0.916598 20.8689 1.07034 21.1425 1.34403L26.469 6.67286C27.0382 7.24232 27.0382 8.16533 26.469 8.7348L11.3878 23.8226C11.1142 24.0963 10.7432 24.25 10.3563 24.25H5.02087C4.21546 24.25 3.56254 23.5971 3.56254 22.7917V17.4833C3.56254 17.0968 3.71595 16.7261 3.98906 16.4527L19.0792 1.34443C19.3527 1.07062 19.7238 0.916745 20.1108 0.916672ZM20.1114 4.43824L6.47921 18.0868V21.3333H9.75208L23.3756 7.70383L20.1114 4.43824ZM0.645874 28.625C0.645874 27.8196 1.29879 27.1667 2.10421 27.1667H28.3542C29.1596 27.1667 29.8125 27.8196 29.8125 28.625C29.8125 29.4304 29.1596 30.0833 28.3542 30.0833H2.10421C1.29879 30.0833 0.645874 29.4304 0.645874 28.625Z" fill="#B85526"/>
</svg>
