<svg width="41" height="40" viewBox="0 0 41 40" fill="none" xmlns="http://www.w3.org/2000/svg">
<path d="M35.8563 21.95C35.9335 21.325 35.9849 20.675 35.9849 20C35.9849 19.325 35.9335 18.675 35.8306 18.05L40.1764 14.75C40.5622 14.45 40.665 13.9 40.4336 13.475L36.3192 6.55C36.062 6.1 35.522 5.95 35.0592 6.1L29.9419 8.1C28.8619 7.3 27.7304 6.65 26.4704 6.15L25.6989 0.85C25.6218 0.35 25.1847 0 24.6704 0H16.4416C15.9273 0 15.5159 0.35 15.4387 0.85L14.6673 6.15C13.4072 6.65 12.2501 7.325 11.1958 8.1L6.07849 6.1C5.61562 5.925 5.07561 6.1 4.81846 6.55L0.704075 13.475C0.446926 13.925 0.549786 14.45 0.961224 14.75L5.30704 18.05C5.20418 18.675 5.12704 19.35 5.12704 20C5.12704 20.65 5.17847 21.325 5.28133 21.95L0.935509 25.25C0.549785 25.55 0.446926 26.1 0.67836 26.525L4.79274 33.45C5.04989 33.9 5.5899 34.05 6.05277 33.9L11.17 31.9C12.2501 32.7 13.3815 33.35 14.6415 33.85L15.413 39.15C15.5159 39.65 15.9273 40 16.4416 40H24.6704C25.1847 40 25.6218 39.65 25.6732 39.15L26.4447 33.85C27.7047 33.35 28.8619 32.675 29.9162 31.9L35.0335 33.9C35.4963 34.075 36.0363 33.9 36.2935 33.45L40.4079 26.525C40.665 26.075 40.5622 25.55 40.1507 25.25L35.8563 21.95ZM20.556 27.5C16.313 27.5 12.8415 24.125 12.8415 20C12.8415 15.875 16.313 12.5 20.556 12.5C24.7989 12.5 28.2704 15.875 28.2704 20C28.2704 24.125 24.7989 27.5 20.556 27.5Z" fill="#B85526"/>
</svg>
